<svg xmlns="http://www.w3.org/2000/svg" width="854" height="259" viewBox="0 0 854 259"><clipPath id="a"><path d="M0 0h854v259H0z"/></clipPath><g clip-path="url(#a)"><path fill="#1e262c" d="M158.715 30.5q25.933-.326 51.867.001.145 25.154.025 50.306c-1.734 11.358-5.178 22.12-13.803 30.143-15.442 14.366-27.747 13.794-46.576 13.782l-26.276-.046c.405-11.624.12-23.239.158-34.847.025-7.8-.322-19.075 1.286-26.58a43.2 43.2 0 0 1 6.232-14.673c6.851-10.339 15.15-15.625 27.087-18.086"/><path fill="#ebece5" d="M158.715 30.5q25.933-.326 51.867.001.145 25.154.025 50.306l-58.506-.028c-.13-11.226-.294-22.46-.242-33.686.035-7.634 1.876-11.255 6.856-16.593"/><path fill="#1e262c" d="M76.465 30.954c4.435-.542 13.014-.37 17.573-.359q13.796-.003 27.59.198c-1.361 12.726.281 27.82-.381 40.822-.313 6.133.447 12.122-1.157 18.248-5.048 19.269-19.4 31.322-38.709 34.723-14.535.488-31.452.072-46.18.046l-.143-30.79c-.043-8.156-.486-19.88 1.219-27.633a46 46 0 0 1 7.668-16.981c8.159-11.077 19.215-16.35 32.52-18.274"/><path fill="#1e262c" d="M124.107 127.505c27.17-.518 55.81-.044 83.053.027a2762 2762 0 0 0 .036 28.309c.052 19.447.61 32.156-13.543 47.331-14.887 13.863-25.898 13.766-44.521 13.676l-25.127-.153c.324-6.966-.145-17.212-.095-24.614q.325-32.287.197-64.576"/><path fill="#1e262c" d="M80.357 127.283c13.267.045 27.585.308 40.774-.015l-.024 27.196c-.026 17.578.921 31.64-11.143 46.296-8.138 9.887-19.591 14.896-32.164 16.111q-21.285.24-42.57.096l-.028-28.186c-.003-6.508-.229-13.193.276-19.67 1.948-24.992 20.37-40.848 44.88-41.828"/><path fill="#1e262c" d="M556.005 194.944c-40.999.17-50.17-60.33-26.897-85.639 8.187-8.884 17.057-11.587 28.642-12.49 30.522-2.383 43.797 18 44.605 46.21-5.51-.416-13.794-.097-19.529 0-17.158.541-35.991.156-53.272.143-.035 22.914 4.772 50.177 33.317 50.557l2.878-.394-.001 1.54c-4.066.328-5.72.426-9.743.073m30.387-53.976 1.827-.101c1.11-1.3.928-2.712.838-4.419-.955-18.288-8.463-40.415-31.177-38.088-20.684 2.12-27.705 25.189-28.188 42.799z"/><path fill="#3d3b41" d="m529.692 141.159 56.7-.19-.464.08c-2.429.398-4.188.413-6.618.478 2.19.503 2.469.144 3.516 1.499-17.158.54-35.991.155-53.272.142z"/><path fill="#3d3b41" d="m562.871 193.725 2.878-.394-.001 1.54c-4.066.328-5.72.426-9.743.073l-.016-.648c2.698-.085 4.228-.219 6.882-.57"/><path fill="#1e262c" d="M327.113 189.854a38.4 38.4 0 0 1-10.042 4.578c-12.755 3.75-29.63 1.1-41.166-5.352-33.643-18.816-39.81-71.205-21.735-102.63a55.78 55.78 0 0 1 33.829-26.245c13.358-3.51 33.079-3.078 45.015 4.423 16.346 10.27 21.7 23.511 26.222 40.976q-5.782.075-11.566.077a117 117 0 0 0-6.805-18.226c-5.235-11.018-12.23-21.166-24.185-25.545-8.225-3.5-20.676-2.133-28.543 2.32-31.95 18.084-38.314 69.226-21.977 99.684 6.748 12.58 15.78 23.288 29.425 27.704 10.383 3.36 20.747 1.877 30.09-2.841z"/><path fill="#1e262c" d="M795.072 180.488c3.24-7.341 6.084-16.005 8.794-23.605l12.897-36.099c1.334-3.773 6.729-21.156 9.222-22.582 1.68-.096 1.88-.312 3.359.265.507 2.835-6.196 17.466-7.616 21.046l-20.317 50.117c-5.55 13.821-17.397 48.33-26.243 58.026-3.594 3.939-8.238 6.774-13.68 6.907-6.579.162-11.86-3.486-16.343-7.878 2.61-3.033 3.74-4.916 5.865-8.363 19.365 8.459 30.223-2.868 37.472-19.594-12.865-32.096-26.327-67.954-38.094-100.508l13.759.097c4.762 15.331 11.846 32.657 17.37 47.86 2.856 7.856 10.05 28.705 13.555 34.311"/><path fill="#1e262c" d="M706.826 98.194c1.175-12.258 2.448-22.787 11.231-32.292 10.942-11.838 30.71-13.073 42.425-1.764-3.212 4.298-5.77 7.88-8.734 12.38-5.352-6.66-9.29-14.426-17.5-16.972-15.639 2.615-14.551 17.228-15.277 29.723-.158 2.704-.312 5.256.064 7.95 1.036 1.014 1.58.705 3.442.887l-.496.449c1.235.677 3.187.67 4.65.787-2.5.212-5.255.28-7.782.399l.168 53.73c.025 14.086-.329 25.952.728 40.047l-13.93-.007c1.603-10.251 1.044-26.61 1.023-37.62l.062-56.18c-3.007.046-8.52.33-11.188-.774l1.167-.447.053.78.256.032.42-.92c3.021-.398 6.156-.234 9.218-.188"/><path fill="#1e262c" d="M462.025 54.77c4.69.177 10.18.096 14.927.128-1.97 7.946-1.229 36.682-1.19 46.564.116 30.628-.599 61.284 1.015 91.822q-7.38.019-14.76-.12c1.642-24.855 1.253-48.565 1.2-73.491-.047-22.01.614-42.933-1.192-64.903"/><path fill="#1e262c" d="m490.85 54.78 15 .02c-1.566 10.956-1.317 19.858-1.411 30.831-.126 14.808-.123 29.308.218 44.116.483 20.992-1.268 42.94 1.385 63.755q-7.163-.032-14.324-.141c1.34-26.37.525-54.879.635-81.486.06-14.686.65-43.512-1.503-57.096"/><path fill="#1e262c" d="M651.3 97.353c6.851-.412 8.547.256 14.49 3.202-2.457 3.919-4.211 6.648-6.144 10.89-32.18-7.972-31.857 23.9-31.431 45.81.226 11.6-.834 24.786 1.11 36.194l-14.368.003c.563-5.543.76-9.648.895-15.185l-.124-50.122c-.037-7.962.24-21.954-.51-29.406q6.804-.095 13.606-.33c-.387 10.415-1.246 20.988-.926 31.425 2.582-13.156 8.519-29.359 23.402-32.481"/><path fill="#1e262c" d="M387.204 126.918c-2.555.023-9.29.436-11.272-.383-.858-1.046-1.171-1.457-.967-2.901 2.928-20.668 27.719-28.709 45.856-26.467 29.32 3.623 25.516 26.993 25.295 48.845-.164 16.073.018 31.58 1.04 47.166l-14.813-.014c.087-5.805 1.881-28.787.812-32.469l-1.37-.367c2.404-9.672 2.277-25.022 1.97-35.25l-.55.082-1.068-.383c1.152-6.835 1.2-13.37-3.12-19.141-6.848-9.143-21.934-9.84-30.397-2.714-7.331 6.172-10.063 14.979-11.416 23.996"/><path fill="#1e262c" d="m673.422 98.024 12.749.178c-.996 11.844-.675 28.59-.684 40.491-.013 17.802-.112 36.635 1.07 54.342-.706.652-12 .202-13.728.17 1.02-9.907.895-22.009.883-32l-.061-35.645c-.102-9.161-.472-18.39-.229-27.536"/><path fill="#1e262c" d="M304.808 130.472c16.61.931 38.39.295 55.304.334-.006 6.613.717 58.647-.381 62.033-2.913.598-6.224-3.57-7.579-5.767-5.297-8.588-2.664-21.037-4.431-29.93l-1.055-.991c1.06-6.069 1.732-11.238 1.731-17.404-14.439.01-29.58-.225-43.957.046.143-2.675.374-5.67.368-8.321"/><path fill="#1e262c" d="m411.274 138.017 2.587.87c-10.43 2.544-19.995 5.402-25.998 15.357-9.57 15.87-.989 40.526 20.705 34.436 7.504-2.106 13-7.685 17.145-14.157l1.367 1.312a30 30 0 0 1-1.658 2.788c-9.612 14.284-28.584 22.364-44.775 12.388-11.818-7.281-12.2-27.945-4.342-38.493 8.538-11.46 21.792-12.605 34.969-14.501"/><path fill="#1e262c" d="M590.551 160.16q6.238.21 12.475-.047c-1.854 22.782-16.09 32.155-37.278 34.759v-1.54c17.82-3.054 24.721-16.551 24.803-33.172"/><path fill="#1e262c" d="M677.587 69.182a9.246 9.246 0 0 1 11.354 6.334c1.41 4.864-1.352 9.96-6.199 11.429a9.249 9.249 0 1 1-5.155-17.763"/><path fill="#010101" d="M325.674 188.777c11.695-7.36 17.472-19.752 20.992-32.626l1.055.992c-4.125 13.495-8.095 24.813-20.608 32.711z"/><path fill="#010101" fill-opacity=".957" d="m432.137 124.777 1.069.383c-4.594 8.252-8.124 10.573-17.276 13.159q-1.032.29-2.069.568l-2.587-.87c9.538-1.6 16.095-4.599 20.863-13.24"/><path fill="#010101" d="M722.477 98.106c2.703.024 20.498-.074 21.383.603-3.414 1.301-13.072.686-17.229.633-1.463-.118-3.415-.11-4.65-.787z"/><path fill="#010101" d="m431.784 160.328 1.371.367a70.3 70.3 0 0 1-6.075 15.14l-1.367-1.312c2.824-4.102 4.692-9.458 6.071-14.195"/></g></svg>