<svg xmlns="http://www.w3.org/2000/svg" width="891" height="264" viewBox="0 0 891 264"><clipPath id="a"><path d="M0 0h891v264H0z"/></clipPath><g clip-path="url(#a)"><path fill="#fefefe" d="M89.04 26.738c11.848.512 28.883-.074 41.121-.26.669 9.995-.008 20.288.077 30.319-.119 6.157.187 12.353.022 18.507-.682 25.359-18.591 44.953-43.636 47.158a868 868 0 0 1-43.022.158 52 52 0 0 1-.505-5.961c-.268-8.362-.046-17.406-.105-25.784-.127-17.976-1.494-36.211 12.11-50.161C65.289 30.268 74.803 27.069 89.04 26.738"/><path fill="#fefefe" d="M133.386 125.443c11.441.31 24.135.059 35.714.074q24.372.159 48.745-.103c.037 19.895 2.02 46.42-5.219 64.602-1.615 4.054-5.671 9.371-8.274 13.054-4.221 3.345-7.838 7.188-12.772 9.562-11.749 5.653-44.402 3.91-58.494 3.772-.595-21.7.302-43.855-.041-65.603-.127-8.049-.319-17.439.341-25.358"/><path fill="#fefefe" d="M125.086 125.259c1.821-.18 2.219-.3 4.052.12.232.289.56.522.696.867.653 1.666.145 36.031.17 40.052.088 14.512-4.381 27.8-14.816 38.244-4.478 4.482-10.397 8.826-16.558 10.606-6.909 1.996-40.696.934-50.487.957-1.904.006-2.693.109-4.55-.436-.635-1.251-.76-2.792-.69-4.167 1.546-30.118-8.176-66.696 26.005-82.296 10.103-4.611 18.115-3.783 28.987-3.807q13.596.056 27.191-.14"/><path fill="#fefefe" d="M424.621 94.173a57 57 0 0 1 3.942-.236c3.62-.063 10.118.893 13.698 1.767 24.468 5.973 20.362 35.885 20.752 54.803.286 13.878.51 27.221.448 40.891q-6.976.147-13.95.386a168.2 168.2 0 0 1 .837-32.28c-4.815 13.329-13.168 28.523-27.839 32.584-15.38 4.258-31.288.921-35.952-16.424-.359-7.463-.528-15.406 3.201-22.172 14.247-25.853 46.056-6.825 60.029-34.076-.895-4.216-1.167-7.567-2.998-11.478-5.126-10.239-13.175-13.335-23.859-10.594-14.374 3.687-17.138 14.245-21.463 27.071-3.77.175-8.429.032-12.265.017 4.756-19.634 15.163-28.061 35.419-30.259m-19.403 89.056c3.88 3.521 3.481 2.717 8.368 4.021 18.235 4.868 29.547-12.967 34.582-27.638 1.506-4.392 2.069-31.158.545-35.319-9.658 18.416-36.875 9.477-46.778 30.2-5.458 11.42-4.685 18.866 3.283 28.736"/><path fill="#fefefe" d="M161.284 27.742c1.69-.181 2.797-.51 4.281.246.802 3.473-3.455 9.382-3.907 14.865-.894 10.855.68 24.63-.441 35.093l36.496.021c5.498 0 16.921-.307 21.681.672l.563.892c.408 3.661-.575 6.348-1.595 9.767-4.579 15.35-11.739 23.461-26.486 29.452-4.374 1.223-15.965 4.261-20.144 4.43-12.583.508-25.881.118-38.565.33-.56-10.583.031-23.006-.093-33.758.373-8.809-.7-18.448.7-27.13 2.364-14.658 13-30.543 27.51-34.88"/><path fill="#fefefe" d="M621.405 158.457c4.395 28.876-34.955 42.684-57.524 33.976-32.282-12.455-36.327-58.16-17.519-83.257 12.618-16.837 43.582-21.575 60.114-7.6 13.28 11.226 15.17 23.978 15.085 40.317-23.485-.157-50.188.202-73.513-.473-.24 16.633.591 30.046 12.221 43.176 9.244 10.436 30.242 9.913 40.056.748 4.898-4.574 9.321-15.18 9.167-21.827a27 27 0 0 0-.263-3.119c-.549-1.447-.685-4.4-.834-6.059 6.55.257 7.983.074 13.01 4.118m-73.421-19.564q17.422.043 34.843-.096c8.41-.072 17.067-.255 25.456-.189.273-21.073-6.66-44.143-32.817-41.429-20.992 4.736-26.223 22.388-27.482 41.714"/><path fill="#eae9ea" d="M608.395 154.339c6.55.257 7.983.074 13.01 4.118-2.858.013-10.471-.605-12.031.956l-.145.985c-.549-1.447-.685-4.4-.834-6.059"/><path fill="#fefefe" d="M312.829 54.128c13.801-.779 27.352.644 37.932 10.092 9.569 8.545 20.398 25.159 21.423 38.08-3.852.169-5.955.214-9.769-.115-4.489-16.618-11.315-32.184-26.525-41.281-21.07-12.603-46.01 4.094-56.573 22.286-19.234 33.122-11.134 81.557 20.933 103.366 16.872 11.475 44.257 4.961 52.991-13.866 3.993-8.329 11.365-25.761 8.734-35.188l-1.064-.327c-6.792-.229-38.271 1.299-41.79-1.405-.73-1.697-.502-2.567-.373-4.406 1.219-1.138 3.642-1.655 5.265-1.639 16.733.157 33.793-.666 50.478-.591-.154 10.12-.323 20.386-.279 30.5.042 9.784.678 19.986.079 29.757-2.93.169-6.837.043-9.839.023-1.06-11.553-2.257-17.381-2.391-29.599-8.957 17.288-14.355 30.988-36.135 34.64-33.322 5.941-62.647-18.252-68.016-50.824-4.851-29.424 1.524-65.802 29.924-81.537 9.123-5.054 15.016-6.165 24.995-7.966"/><path fill="#fefefe" d="M169.615 26.215c15.927-.664 36.671-.287 52.779-.124-.15 5.329-.161 43.744-.966 45.218-17.119.616-34.818-.363-51.866.036-.836-8.106-.625-36.57.053-45.13"/><path fill="#fefefe" d="m774.025 95.049 12.032-.111c4.269 9.297 8.857 21.045 12.533 30.078 3.773 9.273 15.919 46.988 21.056 52.261 4.072-3.231 20.35-57.016 24.574-64.598 1.727-3.099 3.915-14.351 6.765-16.526 2.094-.11 1.327-.454 2.806.415a7.62 7.62 0 0 1-.482 4.483c-9.725 22.239-17.385 45.65-26.44 68.112-9.392 17.775-13.631 40.394-26.85 56.462-3.455 4.171-7.909 7.614-13.544 7.99-5.364.358-15.551-1.179-15.587-8.392-.016-3.102 2.5-5.44 4.562-7.505 3.904.996 7.947 2.25 11.828 3.386l2.234-.558c8.667-2.141 13.23-5.51 18.297-12.697 3.272-4.64 3.46-6.9 5.416-11.929-2.428-4.685-4.841-11.806-6.872-16.905a1831 1831 0 0 1-17.155-44.848c-4.327-11.418-11.926-28.009-15.173-39.118"/><path fill="#fefefe" d="M480.132 51.017q6.94-.035 13.881.015l.027 97.306q-.025 12.534.089 25.067c.075 5.493.467 12.83-.136 18.038l-13.784.037a7636 7636 0 0 1-.194-86.15c.001-17.44-.486-37.124.117-54.313"/><path fill="#fefefe" d="M673.002 94.074c1.507-.117 4.695-.367 6.092.005 6.025 1.602 8.241 8.651 2.062 11.915-4.406 2.327-9.883.559-14.391-.746a24 24 0 0 0-2.718 2.068c-12.102 10.629-14.24 20.701-14.64 36.523-.402 15.943.793 32.706-.134 48.543-5.299.084-9.882.14-15.194-.134-.223-3.825-.141-8.011-.14-11.873.136-27.964.701-57.535.122-85.398 5.136.139 10.725.063 15.897.082-.675 7.625-.361 18.309-.319 26.188 5.695-14.649 7.706-20.98 23.363-27.173"/><path fill="#fefefe" d="M509.048 51.527c4.407-.076 9.012-.005 13.437-.004.411 30.456.024 61.726.03 92.248l.026 30.494c.01 5.207.251 13.08-.284 17.959-3.879.358-8.28.185-12.221.128-.62-6.437-.435-14.393-.445-20.935l-.035-32.409z"/><path fill="#fefefe" d="M759.329 53.14c7.584-.389 14.413-.448 20.97 4.081 6.016 4.155-1.813 10.113-5.016 13.378-7.966-8.518-7.209-11.37-19.847-14.037l-.573.188-.951.326c-3.244 1.091-6.028 2.167-7.765 5.255-7.315 13.006-5.221 30.888-5.168 44.997l.078 57.715c.116 8.074.543 18.515-.107 26.371-3.43.085-7 .063-10.443.091-1.141-14.389-.322-36.017-.366-51.172-.042-14.36-.719-38.187.747-51.354a66.1 66.1 0 0 1 4.694-17.714c3.096-7.305 9.186-12.763 16.483-15.651 2.338-.926 4.28-1.223 6.819-2.284z"/><path fill="#fefefe" d="M694.999 93.933c3.872-.001 8.462-.097 11.673 2.123 1.18 2.002 1.62 88.652 1.131 95.354-3.561.829-8.78.609-12.591.614-.569-10.067-.143-23.37-.165-33.737z"/><path fill="#fefefe" d="M701.137 65.585c11.879.689 12.164 14.654 1.99 16.928-5.121.506-8.898-.336-10.247-5.897-1.558-6.423 2.574-10.137 8.257-11.031"/></g></svg>