<svg xmlns="http://www.w3.org/2000/svg" width="893" height="270" viewBox="0 0 893 270"><clipPath id="a"><path d="M0 0h893v270H0z"/></clipPath><g clip-path="url(#a)"><path fill="#1f282b" d="M-59-372H965V652H-59z"/><path fill="#fefefe" d="M90.781 38.208c10.752-.788 30.638-.366 41.58.126.264 8.456-.023 17.767.009 26.325.075 20.168 2.101 38.86-12.576 54.856a47.15 47.15 0 0 1-32.669 15.033c-14.463.537-28.676.298-43.136.256l-.157-30.332c-.068-18.733-1.366-35.68 11.892-50.686 9.706-10.984 20.819-14.551 35.057-15.578"/><path fill="#fefefe" d="M139.292 137.207c10.234-.52 22.256-.22 32.656-.21q24.077-.122 48.15.303c.422 14.016.311 28.437.038 42.46-.294 15.085-4.314 26.586-15.465 37.015-13.479 12.638-27.541 12.157-44.837 12.216l-24.966.046-.002-59.775c-.028-6.019-.602-26.225.3-31.086 1.397-.996 2.153-.745 4.126-.969"/><path fill="#fefefe" d="M87.903 137.203c11.105-.961 32.402-.254 44.401-.209l.028 26.926c-.008 18.412.485 34.716-12.307 49.466-8.124 9.366-18.819 14.369-31.138 15.241-10.212 1.057-33.712.423-44.915.413q.012-13.574-.113-27.147c-.089-16.98-1.032-33.883 10.289-47.837 8.911-10.985 20.068-15.355 33.755-16.853"/><path fill="#fefefe" d="M431.154 105.728c8.517-.252 18.39 1.461 24.859 7.377 9.191 8.404 8.908 21.731 8.708 33.16-.116 6.63-.159 13.288-.152 19.927a683 683 0 0 0 1.296 38.575q-7.717 0-15.432.188c.956-10.368 1.683-23.037 1.251-33.396-5.494 16.133-13.319 30.752-31.301 34.755-14.922 3.321-28.873-3.268-31.798-19.201-2.198-17.444 3.947-30.206 21.57-35.536 13.374-4.045 36.554-2.571 40.463-19.874a19.38 19.38 0 0 0-2.796-15.093 20.86 20.86 0 0 0-13.238-8.799 21.93 21.93 0 0 0-16.655 3.442c-8.968 6.128-11.439 15.854-13.47 25.779-4.924.213-7.682.022-12.47-.854 1.613-21.532 20.253-29.112 39.165-30.45"/><path fill="#1f282b" d="M451.245 135.887c1.344 1.714.671 9.831.714 12.266.362 20.428-6.452 49.59-30.825 52.47-5.734.677-9.482-1.469-13.727-4.859-14.546-19.421-1.852-40.461 19.892-45.367 11.555-2.607 17.314-4.51 23.946-14.51"/><path fill="#fefefe" d="m168.236 38.464.79.22c.464 1.869-1.862 3.777-2.692 5.539-3.702 7.858-2.775 16.696-2.637 25.195q.197 10.28.041 20.561l60.114.028c-4.8 21.767-9.866 31.416-30.584 41.173-15.854 5.078-41.46 4.017-58.259 3.603-.224-9.084-.09-18.5-.198-27.623-.111-9.461-.664-21.617.72-30.773a52.8 52.8 0 0 1 4.819-15.537c6.197-12.56 15.084-18.009 27.886-22.386"/><path fill="#fefefe" d="M580.346 105.736c31.752-1.857 42.185 19.446 44.243 47.542-6.11.42-15.331.233-21.784.315q-26.194.287-52.389.167c-.065 16.504 3.758 44.106 22.035 49.608 16.883 5.082 32.581-2.574 37.993-19.361 1.168-4.248 1.405-9.081 1.644-13.458q6.58.024 13.147.439c-1.646 24.159-17.456 33.128-39.838 35.773-48.021 5.674-61.922-56.731-36.167-87.8 7.82-9.434 19.428-12.33 31.116-13.225"/><path fill="#1f282b" d="M579.019 107.607q.697-.009 1.394-.009c24.581.006 30.219 23.418 30.161 43.283l-27.81.073-32.318-.021c-.171-20.055 8.047-38.045 28.573-43.326"/><path fill="#fefefe" d="M318.486 66.212c33.937-2.587 48.78 19.648 57.408 48.882-3.826.231-8.094.198-11.959.25-5.642-19.994-16.965-44.974-40.741-46.699-10.092-.844-20.568 3.285-28.089 9.965-29.797 26.466-31.033 80.716-4.79 109.984 7.787 8.684 17.411 15.102 29.222 15.875 20.926 1.37 35.008-11.821 40.822-31.062 2.78-8.899 3.869-14.943 4.193-24.394l-13.927-.064-31.179.076c.053-2.837.33-5.7.555-8.533l56.96.235c.108 19.8.833 45.245-.539 64.541-14.123-8.368-11.371-23.032-12.473-36.99-7.209 21.127-14.684 36.862-39.347 39.298a57.93 57.93 0 0 1-42.885-13.22c-33.694-28.317-32.406-96.274 6.491-119.699 9.647-5.81 19.28-7.603 30.278-8.445"/><path fill="#fefefe" d="M171.657 38.123c16.893-.444 34.907-.177 51.852-.036l.071 28.504c.01 2.964.678 15.063-1.068 16.51l-52.084-.006c-.115-15.108-1.178-29.947 1.229-44.972"/><path fill="#fefefe" d="M853.473 106.515c2.154.707 2.232.328 3.306 1.795-1 7.054-7.239 20.776-10.159 27.728a2219 2219 0 0 0-9.698 23.716c-9.478 23.498-18.072 47.415-28.753 70.392-7.885 16.963-23.098 23.4-37.576 8.499 1.924-2.792 3.778-5.758 5.615-8.619 21.219 6.889 30.456-.704 38.714-20.101a1749 1749 0 0 0-9.265-24.052 1382 1382 0 0 1-29.655-78.367l14.044-.135c6.453 18.631 13.774 37.089 20.381 55.678 3.414 9.604 7.037 19.04 11.465 28.229 6.742-17.121 12.449-34.811 18.771-52.082 3.452-9.431 7.729-24.384 12.81-32.681"/><path fill="#fefefe" d="M762.2 64.615c9.452-1.135 17.128 1.724 24.117 7.884-2.74 4.456-5.853 8.798-8.845 13.099-4.803-6.821-16.333-24.191-26.367-13.98-7.785 7.923-7.166 24.576-7.075 35.166 9.871.02 16.61.072 26.373 1.256-7.73 1.22-18.25 1.011-26.374 1.184l.044 53.901c-.081 12.949-.432 28.963 1.064 41.69-4.831.147-9.871.153-14.72.224.225-5.959.968-12.17 1-18.143.137-25.938.09-51.936.084-77.87-2.517.005-5.252.245-7.435-.83l.205-.602c2.392-.889 4.549-.68 7.128-.686 1.997-21.627 7.766-37.72 30.801-42.293"/><path fill="#fefefe" d="m480.951 62.913 15.111-.016c-2.057 17.26-.915 40.31-1.077 57.91-.259 28.034-.056 55.883 1.051 83.901l-15.301.265c1.366-21.541 1.11-40.689 1.253-62.068.182-27.255.032-52.787-1.037-79.992"/><path fill="#fefefe" d="m510.443 62.903 15.122.092c-.124 3.291-.403 6.536-.591 9.819-1.394 24.375-.552 48.77-.504 73.168.039 19.716-.709 39.164 1.659 58.781-4.688.403-10.438.265-15.218.274.34-3.815.606-7.977.667-11.8.685-43.441 1.11-86.948-1.135-130.334"/><path fill="#fefefe" d="M674.559 106.571c6.783-.647 8.551-.123 14.574 2.977a478 478 0 0 0-5.923 11.701c-27.254-5.387-31.605 13.232-32.102 35.842-.348 15.776-.491 32.114.965 47.838l-14.681.095q.099-6.203.391-12.4c.185-4.458.249-8.993.189-13.457-.318-23.757.637-47.842-.454-71.556 4.56-.106 9.418-.014 14.003-.007-.024 9.801-.871 19.506-.123 29.305 4.549-14.218 6.833-26.079 23.161-30.338"/><path fill="#fefefe" d="M697.287 107.084c4.159-.06 8.818.135 13.014.216-.189 27.789-.881 55.702.035 83.505.088 2.674.736 12.023-.333 13.935-4.473.174-8.951.165-13.422-.027 1.293-9.95.934-24.649.911-34.853a3875 3875 0 0 1-.205-62.776"/><path fill="#fefefe" d="M701.465 77.727a9.478 9.478 0 1 1 4.791 18.336 9.477 9.477 0 0 1-11.37-6.823 9.477 9.477 0 0 1 6.579-11.513"/></g></svg>